<?xml version="1.0" standalone="no"?><!DOCTYPE svg PUBLIC "-//W3C//DTD SVG 1.1//EN" "http://www.w3.org/Graphics/SVG/1.1/DTD/svg11.dtd"><svg t="1695020094843" class="icon" viewBox="0 0 1024 1024" version="1.1" xmlns="http://www.w3.org/2000/svg" p-id="4154" data-spm-anchor-id="a313x.search_index.0.i2.67e03a818MKw4d" xmlns:xlink="http://www.w3.org/1999/xlink" width="200" height="200"><path d="M512 106.667A405.333 405.333 0 1 1 106.667 512 405.333 405.333 0 0 1 512 106.667m0-64A469.333 469.333 0 1 0 981.333 512 469.333 469.333 0 0 0 512 42.667z" p-id="4155" data-spm-anchor-id="a313x.search_index.0.i1.67e03a818MKw4d" class="selected" fill="#ffffff"></path><path d="M448 714.667a32 32 0 0 1-22.613-9.387l-192-192a32 32 0 0 1 45.226-45.227L448 637.44l297.387-297.387a32 32 0 0 1 45.226 45.227l-320 320A32 32 0 0 1 448 714.667z" p-id="4156" data-spm-anchor-id="a313x.search_index.0.i3.67e03a818MKw4d" class="selected" fill="#ffffff"></path></svg>