<?xml version="1.0" standalone="no"?><!DOCTYPE svg PUBLIC "-//W3C//DTD SVG 1.1//EN" "http://www.w3.org/Graphics/SVG/1.1/DTD/svg11.dtd"><svg t="1695692710153" class="icon" viewBox="0 0 1024 1024" version="1.1" xmlns="http://www.w3.org/2000/svg" p-id="6494" xmlns:xlink="http://www.w3.org/1999/xlink" width="200" height="200"><path d="M707.352 39.03a31.992 31.992 0 0 0-24.314 58.866 447.888 447.888 0 1 1-349.993 3.199 31.992 31.992 0 1 0-25.593-58.226 511.872 511.872 0 1 0 399.9-3.839z" fill="#ffffff" p-id="6495"></path><path d="M340.083 281.53a31.992 31.992 0 0 0-38.39-51.188 351.912 351.912 0 1 0 406.938-9.597 31.992 31.992 0 0 0-35.83 53.107 287.928 287.928 0 1 1-332.718 7.678z" fill="#ffffff" p-id="6496"></path><path d="M512.2 383.904a31.992 31.992 0 0 0 31.992-31.992V31.992a31.992 31.992 0 0 0-63.984 0v319.92a31.992 31.992 0 0 0 31.992 31.992z" fill="#ffffff" p-id="6497"></path></svg>